# xmcd
# 
# Track frame offsets:
#     150
#     15829
#     32284
#     52199
#     66720
#     83165
#     102890
#     117439
# 
# Disc length: 1800
# 
# Revision: 0
# Processed by: cddbd v1.5.2PL0 Copyright (c) Steve Scherf et al.
# Submitted via: fre:ac v1.0.17
# 
DISCID=61070608
DTITLE=回路 (Kairo) - Do Not Distract the Eye in the Here and Now
DYEAR=2013
DGENRE=Metal
TTITLE0=Mirror
TTITLE1=Blaze
TTITLE2=Light
TTITLE3=Chain
TTITLE4=Cold
TTITLE5=Change
TTITLE6=Flower
TTITLE7=Eyes
EXTD=
EXTT0=
EXTT1=
EXTT2=
EXTT3=
EXTT4=
EXTT5=
EXTT6=
EXTT7=
PLAYORDER=
